# xmcd
#
# Track frame offsets:
#	150
#	60128
#	92925
#	124503
#	162449
#	219580
#	242816
#
# Disc length: 3815 seconds
#
# Revision: 0
# Processed by: cddbd v1.5.2PL0 Copyright (c) Steve Scherf et al.
# Submitted via: EasyCDDAExtractor 16.0.4.1
#
DISCID=580ee507
DTITLE=The Stimulators - Unplugged-Live at Kunstsalon
DYEAR=2017
DGENRE=Blues
TTITLE0=New Year`s Eve On The Waterfront
TTITLE1=Quitate Tu
TTITLE2=This Guitar Is Loaded
TTITLE3=Things About Love
TTITLE4=St. James Infirmary Blues
TTITLE5=Johnny To Bad
TTITLE6=San Perdo
EXTD=
EXTT0=
EXTT1=
EXTT2=
EXTT3=
EXTT4=
EXTT5=
EXTT6=
PLAYORDER=
